<svg width="603" height="491" viewBox="0 0 603 491" fill="none" xmlns="http://www.w3.org/2000/svg">
<path d="M345.553 18.9132L349.049 19.9736C351.362 20.6099 354.762 21.7393 359.165 23.2292C371.873 27.7184 384.137 33.3735 395.802 40.1222C404.131 44.9427 412.127 50.3153 419.738 56.204L422.884 58.643L426.008 61.2305C428.13 62.9485 430.21 64.8096 432.337 66.6919C433.398 67.6145 434.459 68.6007 435.52 69.5922L438.703 72.588L444.947 79.0037C453.839 88.3865 461.902 98.5197 469.048 109.29C476.969 121.259 483.679 133.985 489.08 147.281C494.954 161.761 499.277 176.822 501.976 192.212C502.157 193.209 502.342 194.206 502.507 195.203C502.671 196.2 502.793 197.223 502.937 198.23C503.212 200.256 503.486 202.288 503.759 204.328C504.077 206.364 504.178 208.432 504.374 210.5C504.57 212.568 504.73 214.646 504.905 216.73C504.984 218.851 505.064 220.919 505.143 223.029C505.223 225.139 505.35 227.271 505.287 229.392C505.223 233.634 505.287 237.923 504.952 242.229C504.82 244.376 504.714 246.539 504.565 248.703C504.335 250.866 504.105 253.033 503.876 255.203C503.759 256.29 503.647 257.377 503.531 258.469C503.414 259.562 503.207 260.638 503.053 261.73C502.7 263.904 502.362 266.085 502.04 268.273C501.891 269.371 501.653 270.452 501.43 271.539C501.207 272.626 500.99 273.719 500.767 274.811C500.544 275.903 500.316 276.995 500.093 278.093L499.759 279.737C499.637 280.267 499.488 280.797 499.35 281.365C498.215 285.702 497.228 290.108 495.807 294.419C495.128 296.582 494.491 298.767 493.775 300.935L491.446 307.388L490.268 310.622C489.83 311.683 489.386 312.743 488.937 313.804C488.052 315.925 487.168 318.058 486.284 320.204C482.38 328.602 478.226 337.017 473.207 345.023L471.366 348.056C471.059 348.587 470.762 349.074 470.438 349.573L469.435 351.01L465.441 356.916L464.438 358.396C464.093 358.884 463.722 359.35 463.377 359.833L461.213 362.675L459.053 365.543C458.327 366.498 457.632 367.479 456.841 368.38L452.215 373.921L451.059 375.305C450.671 375.771 450.284 376.233 449.865 376.673L447.409 379.324L444.942 381.975L443.706 383.354L443.091 384.016L442.783 384.35C442.693 384.451 442.454 384.695 442.401 384.737L437.271 389.753L434.698 392.267C433.802 393.094 432.863 393.9 431.945 394.716L426.396 399.616C424.507 401.206 422.571 402.686 420.65 404.229L417.764 406.53C417.292 406.922 416.788 407.272 416.284 407.633L414.783 408.693L408.767 413.046C408.269 413.417 407.749 413.746 407.229 414.107L405.669 415.109L402.544 417.124L399.414 419.133C398.353 419.807 397.292 420.39 396.231 421.021L389.765 424.732C387.563 425.904 385.33 427.012 383.112 428.158L379.775 429.865L376.359 431.408C374.078 432.431 371.802 433.481 369.51 434.483L362.507 437.235L360.751 437.924C360.168 438.158 359.584 438.386 358.985 438.577L355.415 439.785L351.839 440.994C350.645 441.392 349.462 441.822 348.242 442.14L340.969 444.213L339.149 444.743L337.309 445.178L333.595 446.037C328.693 447.288 323.696 448.073 318.741 449.006C316.242 449.404 313.728 449.695 311.219 450.067L307.452 450.597L303.664 450.92L299.871 451.244L297.977 451.408C297.346 451.461 296.715 451.525 296.078 451.535L288.471 451.822C285.935 451.97 283.399 451.864 280.858 451.859L277.049 451.822C276.412 451.822 275.776 451.822 275.144 451.79L273.24 451.684L265.633 451.244L264.678 451.185L263.733 451.085L261.839 450.888L258.046 450.485L254.259 450.082C252.996 449.913 251.744 449.706 250.487 449.515C247.977 449.117 245.463 448.757 242.959 448.333C237.988 447.272 232.975 446.413 228.078 445.056L224.365 444.112L222.524 443.64C221.909 443.476 221.309 443.274 220.699 443.11L213.421 440.878C212.821 440.682 212.206 440.517 211.612 440.3L209.824 439.557L206.248 438.269L202.667 436.954L201.771 436.631L200.895 436.27L199.145 435.538L192.137 432.606C189.829 431.572 187.564 430.448 185.277 429.372L181.861 427.739C180.742 427.155 179.633 426.546 178.524 425.952L171.898 422.357L165.437 418.444C164.376 417.786 163.278 417.15 162.217 416.477L159.097 414.356C157.018 412.945 154.927 411.556 152.869 410.114L146.843 405.623C145.845 404.865 144.832 404.128 143.851 403.354L140.975 400.957L135.235 396.158L129.755 391.095L127.023 388.566C127.023 388.566 126.652 388.216 126.577 388.131L126.259 387.813L125.628 387.166L124.365 385.872L119.315 380.702C118.896 380.289 118.482 379.812 118.063 379.34L116.821 377.935L114.333 375.124C110.917 371.413 107.999 367.51 104.906 363.693C104.127 362.749 103.426 361.741 102.71 360.75L100.588 357.77L98.4661 354.79C98.116 354.292 97.7447 353.804 97.4051 353.295L96.4131 351.763L92.4609 345.628L91.4476 344.117L90.5404 342.526L88.7261 339.382C88.1214 338.321 87.5166 337.261 86.9171 336.238L86.01 334.647C85.7182 334.117 85.4795 333.586 85.1771 333.056C84.0807 330.911 82.9843 328.769 81.888 326.63C80.7474 324.509 79.8349 322.298 78.8323 320.124C78.3442 319.064 77.8508 317.945 77.3575 316.858C76.8641 315.771 76.3548 314.695 75.941 313.576L73.331 306.943L72.6944 305.304L72.3708 304.477L72.0843 303.639C71.7076 302.515 71.3257 301.396 70.949 300.278C70.201 298.04 69.4159 295.818 68.7103 293.576L66.7846 286.815C66.4663 285.691 66.1374 284.567 65.835 283.443L65.0392 280.039C64.5087 277.777 63.9782 275.518 63.4477 273.263C59.8145 255.505 58.2462 237.387 58.774 219.27C60.0737 183.935 69.384 150.945 83.628 123.479C90.4263 110.297 98.4907 97.8057 107.707 86.183L114.413 78.1607C114.944 77.4873 115.543 76.8722 116.121 76.2412L117.856 74.3695L121.288 70.658L122.137 69.7407L122.562 69.2847L122.774 69.0514C122.901 68.9241 122.774 69.0514 123.113 68.7014L124.806 67.0259L128.164 63.712C129.225 62.6515 130.498 61.501 131.691 60.3981L135.278 57.1213C144.1 49.2908 153.524 42.1656 163.463 35.8115C171.912 30.4236 180.704 25.5918 189.781 21.3469C202.521 15.3857 215.792 10.6318 229.42 7.14747L235.675 5.60982L240.259 4.65541L243.972 3.88658C245.273 3.60473 246.618 3.5834 247.928 3.82382C249.237 4.06424 250.486 4.56164 251.602 5.2873C252.719 6.01295 253.68 6.95248 254.431 8.0516C255.182 9.15071 255.707 10.3876 255.977 11.6909C256.247 12.9942 256.256 14.338 256.003 15.6447C255.75 16.9514 255.241 18.1951 254.505 19.3039C253.768 20.4127 252.819 21.3647 251.712 22.1049C250.606 22.8451 249.363 23.3588 248.057 23.6163H247.967L247.548 23.6958L244.126 24.3904L239.935 25.1858L234.206 26.5113C221.703 29.495 209.508 33.6454 197.781 38.908C189.414 42.6539 181.3 46.9401 173.49 51.7395C164.283 57.4245 155.536 63.8227 147.331 70.8753L144.1 73.7015C143.012 74.6665 141.935 75.5678 140.8 76.6972L137.416 79.974L135.697 81.623L134.227 83.166L131.007 86.5382L129.378 88.2403C128.848 88.8076 128.28 89.3696 127.787 89.9847L121.447 97.2859C112.776 107.882 105.154 119.295 98.6889 131.364C98.2327 132.132 97.8561 132.954 97.4529 133.75C97.0497 134.545 96.6518 135.34 96.2486 136.173L93.8189 141.051C93.055 142.71 92.3441 144.402 91.6014 146.088C90.8587 147.774 90.0948 149.471 89.3893 151.194C88.6837 152.917 88.063 154.683 87.3999 156.443C87.0657 157.318 86.7261 158.198 86.3919 159.094L85.8933 160.42L85.4529 161.772L83.6864 167.212L82.7739 169.943L82.01 172.732C77.6753 188.125 75.0634 203.952 74.2222 219.922C73.4655 236.825 74.6618 253.759 77.7872 270.389C78.2434 272.51 78.7032 274.631 79.1665 276.752C79.3946 277.812 79.628 278.872 79.8561 279.933C80.0843 280.993 80.4185 282.054 80.6996 283.114C81.262 285.235 81.8278 287.356 82.3972 289.477C83.0232 291.598 83.7341 293.676 84.3972 295.787C84.7297 296.847 85.0674 297.908 85.4105 298.968L85.6651 299.763L85.9569 300.543L86.5405 302.102L88.8906 308.358C89.2566 309.419 89.7341 310.421 90.1691 311.455L91.506 314.535C92.4131 316.587 93.2301 318.687 94.2752 320.686C95.3203 322.685 96.2646 324.737 97.2672 326.762C97.5165 327.293 97.7553 327.786 98.0205 328.284L98.8481 329.769L100.503 332.749L102.158 335.729L102.986 337.224L103.893 338.677L107.516 344.509L108.424 345.967C108.731 346.45 109.071 346.911 109.394 347.388L111.363 350.214L113.331 353.056C113.989 354 114.631 354.96 115.357 355.861C118.195 359.483 120.938 363.284 123.978 366.673L126.211 369.287L127.331 370.596C127.702 371.031 128.063 371.471 128.493 371.906L133.458 377.145L134.705 378.46L135.325 379.112L135.638 379.44C135.701 379.512 135.769 379.579 135.84 379.642L138.386 382.07L143.49 386.938L148.843 391.556L151.527 393.868C152.445 394.616 153.389 395.326 154.317 396.058L159.93 400.421C161.856 401.805 163.813 403.147 165.766 404.515L168.689 406.562C169.686 407.214 170.705 407.829 171.707 408.47C173.727 409.732 175.746 410.999 177.766 412.272L184.02 415.777C185.081 416.355 186.105 416.954 187.155 417.521L190.376 419.112C192.498 420.172 194.657 421.27 196.826 422.293L203.431 425.178L205.086 425.899C205.362 426.021 205.617 426.143 205.914 426.259L206.757 426.578L210.131 427.855L213.511 429.139L215.198 429.78C215.76 429.997 216.344 430.162 216.917 430.353L223.813 432.59C224.391 432.771 224.959 432.972 225.537 433.121L227.288 433.598L230.784 434.52C235.42 435.894 240.184 436.784 244.9 437.866C247.282 438.311 249.675 438.693 252.062 439.107C253.256 439.308 254.45 439.531 255.648 439.711L259.256 440.146L262.869 440.586L264.672 440.809L265.574 440.92L266.481 440.984L273.739 441.514L275.553 441.647C276.163 441.689 276.768 441.684 277.373 441.705L281.012 441.8C283.441 441.843 285.866 441.986 288.29 441.88L295.574 441.721C296.179 441.721 296.784 441.673 297.388 441.625L299.208 441.498L302.837 441.249L306.471 440.994L310.083 440.57C312.492 440.273 314.906 440.04 317.303 439.69C322.078 438.868 326.89 438.195 331.627 437.039L335.176 436.275L336.948 435.888L338.704 435.416L345.712 433.545C346.889 433.258 348.03 432.861 349.181 432.484L352.635 431.376L356.083 430.273C356.661 430.104 357.229 429.886 357.791 429.674L359.484 429.038L366.258 426.498C368.481 425.57 370.682 424.594 372.895 423.645L376.205 422.214L379.436 420.623C381.59 419.563 383.754 418.502 385.892 417.442L392.173 413.953C393.234 413.359 394.295 412.818 395.298 412.187L398.343 410.294L401.383 408.401L402.905 407.458C403.436 407.139 403.924 406.832 404.406 406.482L410.247 402.442L411.717 401.424C412.205 401.084 412.698 400.756 413.16 400.363L415.982 398.189C417.855 396.731 419.759 395.31 421.595 393.825C423.43 392.341 425.165 390.777 426.942 389.255C427.833 388.491 428.73 387.749 429.595 386.964L432.21 384.494L437.42 379.557L442.226 374.536L444.65 371.996C445.064 371.582 445.441 371.142 445.823 370.697L446.963 369.366L451.531 364.064C452.316 363.2 453.006 362.261 453.722 361.349L455.844 358.603L457.966 355.856C458.321 355.4 458.682 354.949 459.027 354.483L460.019 353.062L463.987 347.394L464.979 345.983C465.303 345.506 465.595 345.013 465.908 344.525L467.738 341.609C472.735 333.915 476.894 325.797 480.831 317.69L483.531 311.503C483.982 310.479 484.427 309.451 484.878 308.422C485.329 307.393 485.674 306.333 486.067 305.288L488.486 299.048C489.212 296.927 489.865 294.832 490.56 292.733C492.024 288.549 493.043 284.249 494.226 280.055C494.364 279.525 494.517 278.994 494.645 278.464L495 276.873L495.7 273.692C495.941 272.632 496.176 271.571 496.406 270.511C496.639 269.45 496.889 268.39 497.048 267.329C497.402 265.209 497.766 263.088 498.141 260.967C498.311 259.906 498.528 258.846 498.671 257.785C498.815 256.725 498.931 255.664 499.059 254.604C499.32 252.483 499.578 250.362 499.833 248.241C500.013 246.12 500.151 243.999 500.311 241.91C500.708 237.7 500.708 233.506 500.841 229.344C500.942 227.266 500.841 225.187 500.804 223.124C500.767 221.062 500.714 218.994 500.671 216.942C500.53 214.895 500.387 212.856 500.242 210.823C500.082 208.798 500.019 206.762 499.711 204.763C499.403 202.764 499.239 200.754 499.005 198.761C498.878 197.769 498.793 196.767 498.629 195.781L498.136 192.833C495.72 177.649 491.701 162.764 486.146 148.426C481.024 135.22 474.6 122.556 466.969 110.621C460.068 99.8524 452.249 89.6996 443.6 80.2763L437.473 73.8181L434.359 70.7958C433.335 69.7937 432.316 68.7969 431.266 67.8637C429.186 65.9655 427.154 64.0832 425.069 62.344L422.003 59.7247L418.921 57.2644C411.44 51.2886 403.569 45.817 395.361 40.8858C383.831 33.9753 371.688 28.1428 359.086 23.4625C354.714 21.8719 351.335 20.7213 349.006 20.0267L345.553 18.9132Z" fill="#FFFFFF"/>
<path d="M554.448 143.972C554.895 145.493 555.094 147.076 555.037 148.66C554.985 149.448 554.882 150.233 554.729 151.008C554.639 151.395 554.597 151.793 554.475 152.17L554.135 153.31C554.04 153.691 553.87 154.052 553.737 154.423C553.605 154.794 553.461 155.165 553.302 155.526L552.772 156.586C552.613 156.949 552.436 157.303 552.241 157.647C551.854 158.336 551.499 159.041 551.058 159.704C550.618 160.367 550.225 161.051 549.759 161.687C546.135 166.889 541.647 171.422 536.947 175.653C532.209 179.854 527.26 183.811 522.119 187.509C517 191.221 511.743 194.763 506.395 198.151C484.979 211.693 462.427 223.347 439.552 234.206C416.677 245.065 393.319 254.97 369.706 264.185C346.094 273.401 322.253 281.995 298.158 289.928C249.988 305.739 200.964 319.196 151.023 328.777C138.535 331.137 125.989 333.237 113.357 334.949C100.726 336.662 88.0524 338.009 75.2779 338.714C68.9119 339.069 62.4875 339.244 56.0525 339.207C49.5855 339.199 43.1236 338.845 36.6945 338.146C30.2224 337.388 23.7131 336.264 17.2675 333.952C16.4612 333.682 15.676 333.343 14.8591 333.003C14.0421 332.664 13.2676 332.282 12.4771 331.906C12.0792 331.72 11.6867 331.503 11.2941 331.28L10.1217 330.617C9.73442 330.384 9.35776 330.114 8.9758 329.864C8.5838 329.619 8.20486 329.354 7.84053 329.069L6.74239 328.21C6.37104 327.929 6.03152 327.563 5.68139 327.245C4.96951 326.569 4.30316 325.846 3.6867 325.082C2.43032 323.451 1.45331 321.624 0.795468 319.673C0.194249 317.697 -0.0693903 315.634 0.0156304 313.57C0.0767924 312.591 0.204406 311.617 0.397592 310.654C0.498387 310.188 0.567352 309.694 0.710587 309.249L1.10846 307.897C1.23048 307.441 1.41615 307.027 1.57531 306.598C1.73446 306.168 1.89891 305.734 2.10581 305.32L2.66814 304.101C2.85912 303.692 3.0501 303.289 3.27291 302.913C3.70262 302.144 4.1111 301.354 4.58325 300.638C5.0554 299.922 5.50102 299.164 6.00499 298.475C9.93601 292.87 14.6044 288.199 19.4532 283.851C21.8723 281.667 24.3869 279.609 26.9121 277.605C29.4372 275.601 32.0261 273.666 34.6468 271.81C39.8722 268.056 45.2144 264.519 50.6361 261.126C61.4742 254.334 72.6254 248.135 83.9145 242.244C95.2035 236.354 106.668 230.839 118.238 225.574C165.23 204.28 213.277 187.069 260.858 172.477C285.113 165.075 309.549 158.333 334.168 152.249C358.773 146.167 383.568 140.844 408.502 136.475C433.435 132.106 458.602 128.675 483.913 127.392C490.236 127.079 496.57 126.931 502.905 127.021C509.238 127.08 515.565 127.46 521.859 128.161C528.141 128.903 534.422 130.022 540.379 132.18C541.133 132.435 541.859 132.747 542.591 133.055C543.324 133.363 544.029 133.712 544.745 134.052C545.101 134.216 545.451 134.412 545.806 134.609L546.867 135.197C547.207 135.399 547.525 135.632 547.859 135.849C548.195 136.058 548.519 136.284 548.83 136.528L549.759 137.265C550.077 137.504 550.342 137.795 550.639 138.066C551.206 138.611 551.738 139.192 552.231 139.805C553.189 141.066 553.938 142.473 554.448 143.972ZM554.448 143.972C553.934 142.475 553.18 141.071 552.215 139.815C551.723 139.201 551.192 138.62 550.623 138.076C550.326 137.811 550.061 137.514 549.743 137.276L548.814 136.544C548.501 136.301 548.175 136.074 547.838 135.865C547.509 135.648 547.186 135.42 546.846 135.218L545.817 134.635C545.472 134.44 545.118 134.264 544.756 134.105C544.04 133.765 543.339 133.394 542.602 133.108C541.865 132.822 541.143 132.493 540.395 132.244C534.432 130.096 528.151 128.993 521.875 128.262C515.584 127.569 509.26 127.215 502.931 127.201C496.602 127.148 490.273 127.334 483.955 127.689C471.313 128.378 458.724 129.741 446.183 131.401C433.642 133.06 421.154 135.186 408.725 137.541C359.001 147.074 310.11 160.521 262.083 176.29C238.066 184.201 214.285 192.755 190.742 201.953C167.198 211.15 143.997 221.106 121.14 231.82C98.3653 242.621 75.9304 254.222 54.7422 267.621C49.4372 270.977 44.2595 274.466 39.2197 278.13C34.1931 281.747 29.3523 285.616 24.7158 289.721C20.1588 293.814 15.8511 298.204 12.5142 302.977C10.8841 305.231 9.59034 307.71 8.67342 310.336L8.40817 311.243C8.32559 311.543 8.26006 311.847 8.21188 312.155C8.09207 312.743 8.01231 313.338 7.97315 313.936C7.93888 315.048 8.07302 316.158 8.37103 317.229C8.74837 318.277 9.28518 319.261 9.96254 320.145C10.3303 320.618 10.729 321.066 11.1562 321.487C11.3747 321.709 11.6049 321.92 11.8458 322.118L12.5991 322.717C14.8657 324.33 17.3527 325.608 19.9837 326.513C25.4638 328.502 31.5115 329.599 37.5964 330.315C40.6467 330.686 43.7343 330.909 46.8218 331.11C49.9093 331.312 53.0234 331.407 56.1374 331.428C62.3655 331.519 68.6254 331.375 74.88 331.063C87.3945 330.432 99.925 329.255 112.413 327.69C124.901 326.126 137.347 324.228 149.787 322.043C174.636 317.701 199.341 312.388 223.866 306.328C248.391 300.267 272.773 293.539 296.959 286.179C345.303 271.333 392.979 254.153 439.101 233.257C450.613 228.013 462.019 222.52 473.244 216.677C484.47 210.834 495.525 204.673 506.252 197.955C511.631 194.593 516.905 191.078 522.029 187.387C527.187 183.729 532.145 179.798 536.883 175.611C541.589 171.396 546.077 166.873 549.711 161.682C550.178 161.046 550.597 160.372 551.016 159.699C551.435 159.025 551.812 158.336 552.199 157.647C552.395 157.303 552.572 156.949 552.729 156.586L553.26 155.526C553.419 155.16 553.552 154.789 553.695 154.423C553.848 154.057 553.983 153.684 554.098 153.304L554.438 152.17C554.56 151.793 554.602 151.395 554.692 151.014C554.849 150.239 554.954 149.454 555.005 148.665C555.076 147.081 554.887 145.496 554.448 143.972Z" fill="#FFFFFF"/>
<path d="M441.34 488.773C439.995 489.613 438.522 490.229 436.979 490.597C436.206 490.758 435.422 490.87 434.634 490.931C434.237 490.931 433.844 491.011 433.446 490.995H432.258C431.865 490.995 431.473 490.936 431.075 490.91C430.677 490.883 430.29 490.841 429.897 490.783L428.725 490.586C428.333 490.532 427.946 490.456 427.563 490.358C426.794 490.173 426.014 490.014 425.26 489.77C424.507 489.526 423.738 489.33 422.995 489.054C417.011 486.933 411.441 483.858 406.104 480.464C400.781 477.031 395.638 473.329 390.693 469.372C385.733 465.427 380.916 461.297 376.216 457.055C357.415 440.088 340.141 421.487 323.526 402.373C306.911 383.258 291.107 363.444 275.876 343.184C260.646 322.924 245.983 302.255 231.871 281.195C203.702 239.052 177.553 195.468 154.949 149.953C149.32 138.564 143.925 127.042 138.89 115.356C133.856 103.67 129.15 91.8087 125.039 79.7036C122.986 73.6484 121.081 67.5084 119.405 61.326C117.684 55.1012 116.294 48.7898 115.241 42.4181C114.238 35.9865 113.57 29.4117 114.068 22.5877C114.116 21.7393 114.227 20.875 114.339 20.0161C114.45 19.1571 114.604 18.2875 114.758 17.4233C114.827 16.9938 114.933 16.559 115.044 16.1189L115.368 14.8145C115.49 14.3798 115.644 13.945 115.782 13.5049C115.92 13.0648 116.047 12.6353 116.243 12.2005L116.774 10.9015C116.944 10.4667 117.203 10.0425 117.416 9.61833C117.876 8.75069 118.393 7.91462 118.965 7.11567C120.2 5.4678 121.698 4.03465 123.4 2.87386C125.146 1.76907 127.064 0.964368 129.076 0.493142C130.036 0.288973 131.009 0.150791 131.989 0.0795653C132.466 0.0795653 132.959 -0.0158754 133.426 0.00533361H134.832C135.309 0.00533361 135.755 0.0689607 136.217 0.106077C136.678 0.143192 137.134 0.18561 137.58 0.25454L138.912 0.477235C139.352 0.546164 139.792 0.631 140.217 0.737046C141.071 0.943834 141.946 1.12941 142.763 1.38922C143.58 1.64903 144.429 1.88233 145.225 2.17926C151.686 4.45923 157.426 7.69891 162.933 11.1931C165.691 12.9375 168.333 14.8092 170.954 16.7022C173.575 18.5951 176.121 20.5675 178.62 22.593C183.638 26.6174 188.482 30.8115 193.203 35.1222C202.667 43.7596 211.627 52.8318 220.333 62.1213C229.038 71.4109 237.431 80.9656 245.638 90.6687C278.296 129.624 307.76 171.04 335.091 213.734C348.725 235.113 361.774 256.834 374.237 278.899C386.704 300.956 398.491 323.396 409.398 346.238C420.306 369.08 430.364 392.367 438.39 416.403C440.396 422.41 442.236 428.47 443.849 434.589C445.494 440.703 446.825 446.897 447.839 453.147C448.809 459.393 449.43 465.74 448.937 472.06C448.894 472.85 448.788 473.651 448.687 474.42C448.587 475.189 448.438 476.011 448.3 476.763C448.237 477.153 448.152 477.539 448.045 477.919L447.759 479.075C447.653 479.452 447.515 479.828 447.398 480.205C447.282 480.581 447.17 480.963 447 481.323L446.539 482.416C446.38 482.778 446.203 483.132 446.008 483.476C445.636 484.175 445.218 484.848 444.756 485.491C443.803 486.763 442.649 487.871 441.34 488.773ZM441.34 488.773C442.645 487.874 443.797 486.771 444.751 485.507C445.21 484.862 445.625 484.187 445.992 483.487C446.167 483.137 446.385 482.797 446.523 482.426L446.979 481.329C447.129 480.963 447.26 480.589 447.372 480.21C447.488 479.833 447.626 479.462 447.727 479.081L448.014 477.93C448.12 477.55 448.205 477.164 448.268 476.774C448.406 475.995 448.571 475.22 448.65 474.436C448.73 473.651 448.852 472.845 448.894 472.076C449.361 465.761 448.735 459.42 447.759 453.179C446.729 446.936 445.368 440.751 443.679 434.653C442.035 428.545 440.157 422.505 438.12 416.514C434.056 404.531 429.367 392.776 424.38 381.153C419.393 369.53 414.014 358.078 408.412 346.768C385.892 301.449 359.812 257.987 331.717 215.966C317.648 194.969 303.022 174.368 287.839 154.163C272.667 133.972 256.874 114.253 240.375 95.1862C223.877 76.1193 206.646 57.6462 188.041 40.8274C183.389 36.6334 178.636 32.5718 173.755 28.7065C168.918 24.8368 163.89 21.2125 158.689 17.8474C153.516 14.56 148.137 11.5908 142.63 9.67136C140.02 8.70961 137.285 8.13095 134.508 7.95342H133.548C133.236 7.95477 132.925 7.97247 132.615 8.00645C132.016 8.05011 131.42 8.13336 130.832 8.25565C129.753 8.51861 128.72 8.94603 127.771 9.52289C126.858 10.1597 126.049 10.9342 125.373 11.8188C125.028 12.309 124.714 12.8208 124.434 13.3511C124.277 13.6203 124.135 13.8982 124.01 14.1836L123.623 15.0585C122.675 17.673 122.11 20.4108 121.946 23.1868C121.501 29.0193 122.063 35.1169 123.007 41.1668C123.463 44.205 124.068 47.2326 124.715 50.2655C125.363 53.2984 126.095 56.31 126.906 59.3217C128.498 65.3398 130.312 71.3261 132.291 77.2646C136.259 89.147 140.752 100.891 145.617 112.493C150.482 124.094 155.649 135.595 161.092 146.957C171.946 169.715 183.697 192.08 196.105 214.063C208.513 236.046 221.569 257.722 235.166 279.026C262.418 321.593 291.807 362.897 324.317 401.678C332.465 411.355 340.821 420.862 349.462 430.098C358.104 439.335 367.017 448.333 376.369 456.859C381.043 461.101 385.828 465.263 390.767 469.224C395.679 473.206 400.801 476.922 406.109 480.358C411.414 483.757 417.001 486.87 422.979 488.975C423.717 489.25 424.481 489.473 425.239 489.696C425.998 489.918 426.767 490.099 427.536 490.29C427.918 490.385 428.306 490.459 428.698 490.517L429.865 490.719C430.258 490.777 430.656 490.799 431.048 490.846C431.441 490.894 431.833 490.942 432.231 490.931H433.414C433.812 490.931 434.205 490.883 434.597 490.867C435.387 490.811 436.172 490.701 436.947 490.539C438.497 490.19 439.98 489.594 441.34 488.773Z" fill="#FFFFFF"/>
<path d="M341.356 306.222H275.24C271.24 306.222 268.232 307.224 266.221 309.217C264.211 311.211 263.144 314.127 263.144 317.971V398.969H233.755V317.971C233.688 313.379 234.338 308.805 235.68 304.413C236.847 300.652 238.58 297.091 240.821 293.851C242.881 290.896 245.376 288.268 248.221 286.057C250.923 283.963 253.865 282.199 256.985 280.802C259.959 279.484 263.066 278.491 266.253 277.838C269.133 277.224 272.067 276.903 275.012 276.879H341.356V306.222Z" fill="#FFFFFF"/>
<path d="M466.99 343.343C466.99 351.918 465.526 359.743 462.597 366.816C459.854 373.616 455.794 379.807 450.65 385.034C445.598 390.117 439.571 394.127 432.932 396.827C426.019 399.64 418.618 401.062 411.154 401.01C403.827 401.056 396.564 399.645 389.788 396.858C383.012 394.072 376.858 389.966 371.685 384.78C366.53 379.551 362.453 373.361 359.685 366.561C356.698 359.189 355.206 351.296 355.298 343.343V246.173H383.25V297.208C384.81 295.246 386.651 293.525 388.714 292.102C390.872 290.604 393.203 289.376 395.658 288.443C398.159 287.489 400.738 286.756 403.367 286.253C405.931 285.743 408.539 285.48 411.154 285.468C418.642 285.415 426.062 286.891 432.958 289.806C439.611 292.618 445.635 296.73 450.677 301.9C455.787 307.193 459.839 313.412 462.613 320.225C465.593 327.564 467.081 335.423 466.99 343.343ZM438.905 343.343C438.94 339.309 438.194 335.306 436.709 331.556C435.337 328.057 433.31 324.851 430.735 322.112C428.236 319.469 425.233 317.353 421.902 315.888C418.518 314.389 414.856 313.623 411.154 313.639C407.418 313.621 403.73 314.479 400.385 316.142C397.041 317.777 394.036 320.027 391.526 322.775C388.993 325.554 386.987 328.77 385.605 332.266C384.192 335.788 383.472 339.548 383.483 343.343C383.437 347.355 384.157 351.339 385.605 355.082C386.955 358.564 388.965 361.753 391.526 364.472C394.035 367.118 397.037 369.249 400.364 370.745C403.752 372.262 407.423 373.046 411.136 373.046C414.849 373.046 418.519 372.262 421.908 370.745C425.233 369.249 428.233 367.118 430.741 364.472C433.305 361.745 435.332 358.56 436.714 355.082C438.201 351.348 438.945 347.361 438.905 343.343Z" fill="#FFFFFF"/>
<path d="M507.409 398.969H481.632V291.863H507.409V398.969Z" fill="#FFFFFF"/>
<path d="M582.506 398.969C576.17 399.011 569.892 397.748 564.066 395.257C552.668 390.404 543.59 381.331 538.735 369.939C536.243 364.116 534.979 357.841 535.021 351.508V319.991H521.812V293.035H535V250.617H561.965V293.035H603.016V319.991H561.965V351.503C561.951 354.234 562.493 356.94 563.557 359.456C564.58 361.882 566.063 364.088 567.923 365.951C569.804 367.821 572.024 369.316 574.464 370.358C576.999 371.454 579.734 372.012 582.496 371.996H603.021V398.947L582.506 398.969Z" fill="#FFFFFF"/>
<path d="M495.589 284.021C508.794 284.021 519.499 273.322 519.499 260.124C519.499 246.926 508.794 236.226 495.589 236.226C482.384 236.226 471.679 246.926 471.679 260.124C471.679 273.322 482.384 284.021 495.589 284.021Z" fill="#FFFFFF"/>
</svg>
